<?xml version="1.0" encoding="UTF-8" standalone="no"?>
<!-- Created with Inkscape (http://www.inkscape.org/) -->

<svg
   xmlns:dc="http://purl.org/dc/elements/1.1/"
   xmlns:cc="http://creativecommons.org/ns#"
   xmlns:rdf="http://www.w3.org/1999/02/22-rdf-syntax-ns#"
   xmlns:svg="http://www.w3.org/2000/svg"
   xmlns="http://www.w3.org/2000/svg"
   xmlns:sodipodi="http://sodipodi.sourceforge.net/DTD/sodipodi-0.dtd"
   xmlns:inkscape="http://www.inkscape.org/namespaces/inkscape"
   width="144.52544mm"
   height="39.617203mm"
   viewBox="0 0 144.52544 39.617203"
   version="1.1"
   id="svg8"
   inkscape:version="0.92.4 (5da689c313, 2019-01-14)"
   sodipodi:docname="logogo.svg">
  <defs
     id="defs2">
    <inkscape:path-effect
       effect="envelope"
       id="path-effect1566"
       is_visible="true"
       yy="true"
       xx="true"
       bendpath1="M 28.067689,99.118307 H 172.04388"
       bendpath2="m 172.04388,99.118307 0.21176,44.084753"
       bendpath3="m 27.878701,135.49084 c 46.254427,-4.97475 94.058729,-5.2117 143.787199,0.37797"
       bendpath4="M 28.067689,99.118307 27.894948,143.22218"
       bendpath2-nodetypes="cc"
       bendpath4-nodetypes="cc"
       bendpath3-nodetypes="cc" />
    <inkscape:path-effect
       effect="envelope"
       id="path-effect1538"
       is_visible="true"
       yy="true"
       xx="true"
       bendpath1="M -161.35277,307.11722 H 7.5671082"
       bendpath2="m 8.0181153,295.07915 v 64.76452"
       bendpath3="M -161.35277,345.96158 H 7.5671082"
       bendpath4="m -161.9653,295.09362 v 64.76453"
       bendpath2-nodetypes="cc"
       bendpath4-nodetypes="cc" />
    <inkscape:path-effect
       effect="bend_path"
       id="path-effect1536"
       is_visible="true"
       bendpath="M -161.35277,326.5394 H 7.5671082"
       prop_scale="0.76"
       scale_y_rel="false"
       vertical="false" />
    <clipPath
       clipPathUnits="userSpaceOnUse"
       id="clipPath1174">
      <rect
         style="fill:#ffffff;fill-opacity:1;stroke:none;stroke-width:0.27241623;stroke-opacity:0"
         id="rect1176"
         width="108.64507"
         height="33.007786"
         x="-125.3494"
         y="76.368988" />
    </clipPath>
    <clipPath
       clipPathUnits="userSpaceOnUse"
       id="clipPath1292">
      <rect
         y="63.410717"
         x="-451.68152"
         height="57.830357"
         width="242.28273"
         id="rect1294"
         style="fill:#ffffff;fill-opacity:1;stroke:none;stroke-width:0.26458332;stroke-opacity:0" />
    </clipPath>
    <clipPath
       clipPathUnits="userSpaceOnUse"
       id="clipPath1296">
      <rect
         style="fill:#ffffff;fill-opacity:1;stroke:none;stroke-width:0.26458332;stroke-opacity:0"
         id="rect1298"
         width="242.28273"
         height="57.830357"
         x="-451.68152"
         y="-45.824402" />
    </clipPath>
  </defs>
  <sodipodi:namedview
     id="base"
     pagecolor="#ffffff"
     bordercolor="#666666"
     borderopacity="1.0"
     inkscape:pageopacity="0.0"
     inkscape:pageshadow="2"
     inkscape:zoom="0.42994792"
     inkscape:cx="703.16497"
     inkscape:cy="-150.92317"
     inkscape:document-units="mm"
     inkscape:current-layer="layer2"
     showgrid="false"
     inkscape:window-width="1920"
     inkscape:window-height="1016"
     inkscape:window-x="0"
     inkscape:window-y="27"
     inkscape:window-maximized="1"
     fit-margin-top="0"
     fit-margin-left="0"
     fit-margin-right="0"
     fit-margin-bottom="0" />
  <metadata
     id="metadata5">
    <rdf:RDF>
      <cc:Work
         rdf:about="">
        <dc:format>image/svg+xml</dc:format>
        <dc:type
           rdf:resource="http://purl.org/dc/dcmitype/StillImage" />
        <dc:title></dc:title>
      </cc:Work>
    </rdf:RDF>
  </metadata>
  <g
     inkscape:label="Layer 1"
     inkscape:groupmode="layer"
     id="layer1"
     transform="translate(-27.683088,-92.631716)">
    <flowRoot
       xml:space="preserve"
       id="flowRoot912"
       style="font-style:normal;font-weight:normal;font-size:40px;line-height:1.25;font-family:sans-serif;letter-spacing:0px;word-spacing:0px;fill:#000000;fill-opacity:1;stroke:none"><flowRegion
         id="flowRegion914"><rect
           id="rect916"
           width="563.53033"
           height="211.64293"
           x="134.28572"
           y="432.51968" /></flowRegion><flowPara
         id="flowPara918" /></flowRoot>  </g>
  <g
     inkscape:groupmode="layer"
     id="layer2"
     inkscape:label="Layer 2"
     transform="translate(-27.683088,-92.631716)">
    <g
       id="g4184">
      <g
         inkscape:export-ydpi="200"
         inkscape:export-xdpi="200"
         inkscape:path-effect="#path-effect1566"
         transform="translate(0,-6.4144686)"
         id="g1588">
        <g
           transform="matrix(1.1091553,0,0,1.1091553,-10.923747,-11.732546)"
           id="text1379"
           style="font-style:normal;font-weight:normal;font-size:35.04446793px;line-height:1.25;font-family:sans-serif;letter-spacing:0px;word-spacing:0px;fill:#000000;fill-opacity:1;stroke:none;stroke-width:0.87611175"
           aria-label="Happenings">
          <path
             inkscape:original-d="m 35.154172,100.24986 c 1.109741,0 2.219482,0 3.329224,0 0,0 1.717179,1.90688 1.717179,1.90688 0,0 0,-1.90688 0,-1.90688 1.109741,0 2.219483,0 3.329225,0 0,0 2.347979,2.53095 2.347979,2.53095 0,8.77169 0,17.54338 0,26.31507 0,0 -3.118957,0 -3.118957,0 0,0 -1.927446,-1.90688 -1.927446,-1.90688 0,0 0,1.90688 0,1.90688 -1.039653,0 -2.079306,0 -3.118958,0 0,0 -2.558246,-2.32294 -2.558246,-2.32294 0,-8.84102 0,-17.68205 0,-26.52308 z m 0.525667,26.00303 c 0.759296,0 1.518593,0 2.27789,0 0,0 0,-11.78804 0,-11.78804 0.016,0 2.75251,0 2.768513,0 0,3.92934 0,7.85869 0,11.78804 0.759297,0 1.518594,0 2.277891,0 0,-8.49433 0,-16.98865 0,-25.48298 -0.759297,0 -1.518594,0 -2.277891,0 0,0 0,11.61469 0,11.61469 -0.922838,0 -1.845676,0 -2.768513,0 0,0 0,-11.61469 0,-11.61469 -0.759297,0 -1.518594,0 -2.27789,0 0,8.49433 0,16.98865 0,25.48298 z"
             inkscape:connector-curvature="0"
             id="path1534"
             style="font-style:normal;font-variant:normal;font-weight:normal;font-stretch:normal;font-size:35.04446793px;font-family:GraphiqueW01-Regular;-inkscape-font-specification:'GraphiqueW01-Regular, Normal';font-variant-ligatures:normal;font-variant-caps:normal;font-variant-numeric:normal;font-feature-settings:normal;text-align:start;writing-mode:lr-tb;text-anchor:start;fill:#000000;stroke-width:0.87611175"
             d="m 35.116403,100.20847 c 0.03665,1.2e-4 3.292034,0.009 3.328687,0.009 0,0 1.632509,2.3435 1.632509,2.3435 0,0 0.08446,-2.34007 0.08446,-2.34007 0.0419,8e-5 3.287042,0.004 3.328938,0.004 0,0 2.238543,3.06525 2.238543,3.06525 -0.08381,3.70172 -0.02653,32.01685 -0.09426,30.68919 0,0 -3.112549,0.46946 -3.112549,0.46946 0,0 -0.496201,-0.26338 -0.988742,-0.56765 -0.490597,-0.30308 -0.977607,-0.64524 -0.977607,-0.64524 0,0 0.04281,1.50306 0.04281,1.50306 0.277529,-0.0418 -3.390425,0.50831 -3.112896,0.46651 0,0 -0.656398,-0.34897 -1.30639,-0.75795 -0.647216,-0.40723 -1.288259,-0.87109 -1.288259,-0.87109 -0.03766,-8.20533 -0.261861,-22.55604 0.224755,-33.36859 z m 0.298108,32.81842 c 0.756481,-0.0875 1.513551,-0.17625 2.270209,-0.26578 0,0 0.02104,-2.79135 0.07337,-6.2845 0.05247,-3.50278 0.06959,-7.46208 0.06959,-7.46208 0.01584,-7.3e-4 2.727197,-0.12928 2.743063,-0.13005 -0.01338,5.17753 -0.13894,10.00537 -0.126079,13.54682 0.111574,-0.0135 2.159982,-0.26156 2.271556,-0.27501 -0.0369,-7.47369 -0.219329,-21.1015 0.220171,-31.31053 0.02492,-4e-5 -2.302068,0.003 -2.277152,0.003 0,0 -0.114255,3.51036 -0.111584,7.44518 0.0026,3.87087 0.02439,7.822 0.02439,7.822 -0.914992,0.0378 -1.830099,0.0746 -2.743933,0.11033 0,0 -0.02468,-3.97501 -0.03416,-7.871 -0.0096,-3.95759 0.09801,-7.50526 0.09801,-7.50526 -4.4e-5,0 -2.276626,-8.1e-4 -2.276581,-8.1e-4 -0.398325,10.49573 -0.200492,24.10787 -0.200873,32.17803 z" />
          <path
             inkscape:original-d="m 53.911724,104.51435 c 0.350444,4.47252 0.700889,8.94504 1.051334,13.41756 0.02137,0 -2.649704,0 -2.628335,0 0.39717,-4.47252 0.794341,-8.94504 1.191512,-13.41756 0,0 0.385489,0 0.385489,0 z m 1.016289,19.4156 c 0.02844,-0.29947 -0.519064,5.46541 -0.490622,5.16593 0,0 -3.013824,0 -3.013824,0 0,0 -2.558247,-2.32294 -2.558247,-2.32294 0.806023,-8.84102 1.612046,-17.68205 2.418069,-26.52308 0,0 4.906225,0 4.906225,0 0,0 2.34798,2.53095 2.34798,2.53095 0.724252,8.77169 1.448504,17.54338 2.172757,26.31507 -1.004609,0 -2.009217,0 -3.013825,0 0,0 -2.558246,-2.32294 -2.558246,-2.32294 -0.01912,-0.25845 -0.191152,-2.58453 -0.210267,-2.84299 z m 0.70089,2.32294 c 0.724252,0 1.448504,0 2.172757,0 0,0 -2.102668,-25.48298 -2.102668,-25.48298 -1.308327,0 -2.616654,0 -3.924981,0 0.128071,-1.38998 -2.476051,26.87296 -2.347979,25.48298 0.724252,0 1.448504,0 2.172757,0 0.01838,-0.20802 0.542327,-6.13672 0.560711,-6.34474 0,0 2.97878,0 2.97878,0 0.163541,2.11491 0.327082,4.22983 0.490623,6.34474 z"
             inkscape:connector-curvature="0"
             id="path1536"
             style="font-style:normal;font-variant:normal;font-weight:normal;font-stretch:normal;font-size:35.04446793px;font-family:GraphiqueW01-Regular;-inkscape-font-specification:'GraphiqueW01-Regular, Normal';font-variant-ligatures:normal;font-variant-caps:normal;font-variant-numeric:normal;font-feature-settings:normal;text-align:start;writing-mode:lr-tb;text-anchor:start;fill:#000000;stroke-width:0.87611175"
             d="m 53.719954,105.34058 c 0.130114,2.66987 0.850303,14.7535 0.987145,17.06318 0.02132,-0.001 -2.642257,0.17502 -2.620958,0.1736 0.437152,-5.34637 0.774704,-11.60259 1.248392,-17.22972 0,0 0.385421,-0.007 0.385421,-0.007 z m 0.899104,23.41485 c 0.0149,-0.13853 -0.123921,1.14247 -0.242774,2.1976 -0.118853,1.05512 -0.20752,1.85865 -0.197886,1.76973 0,0 -3.008349,0.43434 -3.008349,0.43434 0,0 -0.655372,-0.26122 -1.30713,-0.5853 -0.649017,-0.32273 -1.294311,-0.70518 -1.294311,-0.70518 0.717214,-7.1252 1.335049,-21.51534 2.675904,-31.64045 0,0 4.906574,-0.005 4.906574,-0.005 0,0 2.238223,2.92276 2.238223,2.92276 0.351952,8.12789 1.592096,26.54278 2.052498,28.72031 -1.003562,0.13146 -2.006258,0.26604 -3.009587,0.40346 0,0 -0.653347,-0.23156 -1.30438,-0.52649 -0.648327,-0.29371 -1.294061,-0.64776 -1.294061,-0.64776 -0.01612,-0.14109 -0.05916,-0.52194 -0.112407,-1.10615 -0.05116,-0.56122 -0.09087,-1.08212 -0.102314,-1.23219 z m 0.700921,1.88779 c 0.723929,-0.0836 1.447602,-0.16628 2.171805,-0.24791 0,0 -0.141729,-1.12699 -0.31856,-3.45477 -0.182963,-2.4085 -0.395699,-5.90609 -0.657596,-10.08193 -0.257624,-4.10772 -0.523999,-8.24108 -0.683748,-11.26014 -0.158251,-2.99076 -0.200478,-4.78655 -0.200478,-4.78655 0.157406,-5.5e-4 -4.083165,0.0136 -3.925758,0.0131 0.0505,-0.40359 -0.184303,1.29558 -0.450677,4.36678 -0.311025,3.586 -0.515662,7.0419 -0.870972,11.96389 -0.347047,4.80754 -0.635097,8.01105 -0.918141,10.87184 -0.246658,2.49303 -0.371457,3.6393 -0.341604,3.34981 -0.07865,0.01 2.24817,-0.27012 2.169524,-0.26062 -0.02544,0.25263 0.168692,-1.66251 0.285923,-2.87104 0.169118,-1.74345 0.280731,-3.01791 0.3116,-3.3698 0,0 2.971849,-0.22541 2.971849,-0.22541 0.140298,2.29816 0.283499,4.41099 0.456833,5.99278 z" />
          <path
             inkscape:original-d="m 66.499806,102.87086 c 1.004608,0.0233 1.670452,0.18624 1.997534,0.48897 0.350444,0.30269 0.525667,0.8848 0.525667,1.74632 0,1.74632 0,3.49263 0,5.23895 0,0.76837 -0.186904,1.30391 -0.560711,1.60661 -0.350445,0.30269 -1.004608,0.46568 -1.96249,0.48897 0,-3.18994 0,-6.37988 0,-9.56982 z m -2.803558,24.09917 c 0,-8.90621 0,-17.81243 0,-26.71864 0,0 4.170292,0 4.170292,0 0.443896,0 0.829385,0.0466 1.156467,0.1397 0.350444,0.0699 0.700889,0.23285 1.051334,0.48897 0.373808,0.23284 0.78266,0.58211 1.226557,1.04779 0.467259,0.46569 1.039652,1.09436 1.717179,1.88602 0.420533,0.46569 0.71257,0.95466 0.876111,1.46691 0.186904,0.48897 0.280356,1.07107 0.280356,1.74631 0,1.8511 0,3.70219 0,5.55329 0,1.49019 -0.350445,2.66605 -1.051334,3.52756 -0.70089,0.86152 -1.64709,1.29228 -2.838602,1.29228 -0.303719,0 -0.607438,0 -0.911156,0 0,-3.96996 0,15.87983 0,11.90987 -1.039653,0 -2.079306,0 -3.118958,0 0,0 -2.558246,-2.34006 -2.558246,-2.34006 z m 2.803558,-0.52389 c 0,0 0,-11.90989 0,-11.90989 0.443896,0 0.887792,0 1.331689,0 1.074697,0 1.915764,-0.39583 2.523202,-1.18749 0.6308,-0.79166 0.946201,-1.86274 0.946201,-3.21322 0,-1.8511 0,-3.70219 0,-5.55329 0,-1.16421 -0.315401,-2.08393 -0.946201,-2.75917 -0.607438,-0.69854 -1.436823,-1.0478 -2.488157,-1.0478 -1.214875,0 -2.42975,0 -3.644625,0 0,8.55695 0,17.11391 0,25.67086 0.759297,0 1.518594,0 2.277891,0 z"
             inkscape:connector-curvature="0"
             id="path1538"
             style="font-style:normal;font-variant:normal;font-weight:normal;font-stretch:normal;font-size:35.04446793px;font-family:GraphiqueW01-Regular;-inkscape-font-specification:'GraphiqueW01-Regular, Normal';font-variant-ligatures:normal;font-variant-caps:normal;font-variant-numeric:normal;font-feature-settings:normal;text-align:start;writing-mode:lr-tb;text-anchor:start;fill:#000000;stroke-width:0.87611175"
             d="m 66.359474,103.15883 c 1.00524,0.0161 1.668771,0.19875 1.988562,0.55066 0.343874,0.3523 0.50584,1.0373 0.492794,2.08581 -0.02587,2.07914 -0.03392,4.39237 -0.03956,6.55184 -0.0025,0.97136 -0.191291,1.6506 -0.56686,2.04428 -0.351835,0.39247 -1.008321,0.62125 -1.967485,0.68783 0.0087,-3.75152 0.0078,-8.44308 0.09255,-11.92042 z m -2.967143,27.09107 c 0.0014,0.11674 0.08185,-26.33794 0.266365,-30.03847 0,0 4.171129,-0.008 4.171129,-0.008 0.443744,-8.5e-4 0.827447,0.0484 1.149907,0.14763 0.346879,0.0743 0.690364,0.2486 1.029836,0.52633 0.363858,0.25228 0.75986,0.63421 1.188766,1.15445 0.452546,0.52038 1.008417,1.23296 1.671685,2.15627 0.412289,0.54298 0.697107,1.12191 0.854242,1.73838 0.180853,0.58782 0.268156,1.29643 0.262545,2.13069 -0.01455,2.1637 -0.01983,4.7584 -0.02584,6.91975 -0.0051,1.84187 -0.361961,3.25324 -1.070047,4.28763 -0.704969,1.02985 -1.663108,1.55916 -2.854684,1.61915 -0.0026,1.3e-4 -0.910789,0.0464 -0.913389,0.0465 0.01313,-2.25811 -0.02089,2.60589 -0.04355,6.03643 -0.01233,1.86705 -0.0097,2.88003 0.0097,3.60118 0.01665,0.61838 0.02997,0.78142 0.01178,0.34814 -1.039051,0.11498 -2.077376,0.23462 -3.116142,0.35866 0,0 -0.650203,-0.1926 -1.299748,-0.4501 -0.646874,-0.25644 -1.292569,-0.57482 -1.292569,-0.57482 z m 2.80271,-0.64039 c 0,0 -0.0038,-0.49052 -8.35e-4,-1.3823 0.0033,-1.00673 0.01271,-2.11906 0.02574,-3.77249 0.02418,-3.06865 0.03965,-6.77441 0.03965,-6.77441 -0.0074,3.4e-4 1.341173,-0.0599 1.333814,-0.0595 1.075328,-0.0473 1.922768,-0.56292 2.533311,-1.56032 0.635559,-1.00088 0.954467,-2.34426 0.959384,-4.04651 0.0066,-2.2815 0.0164,-4.71475 0.04739,-6.8888 0.01993,-1.39761 -0.271016,-2.44953 -0.879403,-3.20414 -0.581801,-0.77777 -1.399412,-1.15323 -2.449416,-1.14922 -0.364052,0.001 -3.282892,0.0127 -3.646944,0.0141 -0.144178,3.31763 -0.241225,29.27237 -0.242821,29.0537 0.759992,-0.0785 1.519849,-0.15517 2.280129,-0.23006 z" />
          <path
             inkscape:original-d="m 79.436142,102.87086 c 1.004608,0.0233 1.670453,0.18624 1.997535,0.48897 0.350444,0.30269 0.525667,0.8848 0.525667,1.74632 0,1.74632 0,3.49263 0,5.23895 0,0.76837 -0.186904,1.30391 -0.560712,1.60661 -0.350445,0.30269 -1.004608,0.46568 -1.96249,0.48897 0,-3.18994 0,-6.37988 0,-9.56982 z m -2.803557,24.09917 c 0,-8.90621 0,-17.81243 0,-26.71864 1.390097,0 2.780194,0 4.170291,0 0.443896,0 0.829386,0.0466 1.156468,0.1397 0.350444,0.0699 0.700889,0.23285 1.051334,0.48897 0.373807,0.23284 0.782659,0.58211 1.226556,1.04779 0.46726,0.46569 1.039653,1.09436 1.717179,1.88602 0.420534,0.46569 0.712571,0.95466 0.876112,1.46691 0.186904,0.48897 0.280356,1.07107 0.280356,1.74631 0,1.8511 0,3.70219 0,5.55329 0,1.49019 -0.350445,2.66605 -1.051334,3.52756 -0.70089,0.86152 -1.647091,1.29228 -2.838602,1.29228 -0.303719,0 -0.607438,0 -0.911157,0 0,0 0,11.90987 0,11.90987 -1.039653,0 -2.079305,0 -3.118957,0 0,0 -2.558246,-2.34006 -2.558246,-2.34006 z m 2.803557,-0.52389 c 0,-3.96996 0,-7.93992 0,-11.90989 0.443896,0 0.887793,0 1.33169,0 1.074696,0 1.915764,-0.39583 2.523202,-1.18749 0.6308,-0.79166 0.9462,-1.86274 0.9462,-3.21322 0,-1.8511 0,-3.70219 0,-5.55329 0,-1.16421 -0.3154,-2.08393 -0.9462,-2.75917 -0.607438,-0.69854 -1.436824,-1.0478 -2.488158,-1.0478 0,0 -3.644624,0 -3.644624,0 0,8.55695 0,17.11391 0,25.67086 0,0 2.27789,0 2.27789,0 z"
             inkscape:connector-curvature="0"
             id="path1541"
             style="font-style:normal;font-variant:normal;font-weight:normal;font-stretch:normal;font-size:35.04446793px;font-family:GraphiqueW01-Regular;-inkscape-font-specification:'GraphiqueW01-Regular, Normal';font-variant-ligatures:normal;font-variant-caps:normal;font-variant-numeric:normal;font-feature-settings:normal;text-align:start;writing-mode:lr-tb;text-anchor:start;fill:#000000;stroke-width:0.87611175"
             d="m 79.326954,103.03432 c 1.006508,0.0186 1.672022,0.19805 1.994199,0.54143 0.346213,0.34378 0.512142,1.0111 0.50201,2.03357 -0.02017,2.03578 -0.02866,4.28183 -0.0351,6.40115 -0.0029,0.94961 -0.192471,1.61106 -0.56929,1.99099 -0.353108,0.37913 -1.011494,0.59416 -1.973824,0.6481 0.01062,-3.69771 0.01714,-8.2042 0.08201,-11.61524 z m -2.979576,26.01487 c -1.86e-4,0.82844 0.122833,-25.58335 0.25073,-28.86212 -0.147925,2.6e-4 4.319467,-0.007 4.171543,-0.007 0.443772,-7e-4 0.828262,0.0468 1.152198,0.14281 0.347941,0.0718 0.694139,0.24041 1.037274,0.5096 0.36716,0.24457 0.768198,0.61539 1.202491,1.12209 0.458015,0.50697 1.020479,1.20262 1.68988,2.10816 0.415937,0.53265 0.703833,1.10099 0.863399,1.706 0.183225,0.57712 0.272615,1.27256 0.268422,2.09106 -0.01098,2.14397 -0.01664,4.65017 -0.02273,6.7907 -0.0051,1.80636 -0.36261,3.18132 -1.072221,4.17759 -0.706528,0.99195 -1.667022,1.48684 -2.862089,1.52347 -0.0011,4e-5 -0.915039,0.0288 -0.916103,0.0288 0,0 -0.02105,3.36701 -0.04524,5.78537 -0.01332,1.33177 -0.02184,2.07805 -0.02687,2.76129 -0.0042,0.5751 -0.0032,0.82736 -0.0032,0.82736 -1.040227,0.0701 -2.079864,0.1461 -3.119801,0.22791 0,0 -0.641173,-0.171 -1.284709,-0.40545 -0.640774,-0.23345 -1.282967,-0.52758 -1.282967,-0.52758 z m 2.812256,-0.51063 c 0.01387,-2.42764 0.06014,-6.63703 0.07726,-11.357 -0.0029,8e-5 1.341057,-0.0399 1.338154,-0.0398 1.078793,-0.0311 1.928649,-0.52027 2.541095,-1.48596 0.63741,-0.96854 0.957663,-2.2792 0.962753,-3.94636 0.0068,-2.24267 0.01603,-4.60979 0.03834,-6.74096 0.01429,-1.36495 -0.285296,-2.39012 -0.901636,-3.12414 -0.589845,-0.7563 -1.413579,-1.11938 -2.463504,-1.11645 0,0 -3.648133,0.0109 -3.648133,0.0109 -0.09527,2.80661 -0.232092,28.94869 -0.228993,27.95595 0,0 2.284669,-0.15618 2.284669,-0.15618 z" />
          <path
             inkscape:original-d="m 89.568921,100.25139 c 2.114349,0 4.228699,0 6.343049,0 0.782659,0.84987 1.565319,1.69975 2.347979,2.54962 0,0 0,2.93381 0,2.93381 -1.004608,0 -2.009216,0 -3.013824,0 0,2.0723 0,4.14459 0,6.21689 0.221948,0 0.443896,0 0.665845,0 0,0 2.347979,2.54962 2.347979,2.54962 0,0.97794 0,1.95587 0,2.93381 -1.004608,0 -2.009216,0 -3.013824,0 0,2.13051 0,4.26101 0,6.39152 0.221948,0 0.443896,0 0.665845,0 0,0 2.347979,2.54963 2.347979,2.54963 0,0.97793 0,1.95587 0,2.9338 -6.132782,0 0,0 -6.132782,0 0,0 -2.558246,-2.34006 -2.558246,-2.34006 0,-8.90621 0,-17.81243 0,-26.71864 z m 0.525667,26.19475 c 1.763905,0 3.52781,0 5.291715,0 0,-0.69853 0,-1.39705 0,-2.09558 0,0 -3.013824,0 -3.013824,0 0,-3.25979 0,-6.51958 0,-9.77937 0,0 3.013824,0 3.013824,0 0,-0.69853 0,-1.39706 0,-2.09559 0.200921,0 -3.214746,0 -3.013824,0 0,0 0,-9.60474 0,-9.60474 1.004608,0 2.009216,0 3.013824,0 0,-0.69853 0,-1.39705 0,-2.09558 -1.763905,0 -3.52781,0 -5.291715,0 0,0 0,25.67086 0,25.67086 z"
             inkscape:connector-curvature="0"
             id="path1543"
             style="font-style:normal;font-variant:normal;font-weight:normal;font-stretch:normal;font-size:35.04446793px;font-family:GraphiqueW01-Regular;-inkscape-font-specification:'GraphiqueW01-Regular, Normal';font-variant-ligatures:normal;font-variant-caps:normal;font-variant-numeric:normal;font-feature-settings:normal;text-align:start;writing-mode:lr-tb;text-anchor:start;fill:#000000;stroke-width:0.87611175"
             d="m 89.538615,100.16872 c -0.0582,6e-5 6.403523,-0.004 6.345322,-0.004 0.773272,0.86168 1.549838,1.76796 2.331115,2.71144 0,0 -0.01339,3.37459 -0.01339,3.37459 -1.010407,9.6e-4 -2.020257,0.003 -3.030583,0.006 -0.0047,1.12935 -0.01631,6.40967 -0.02104,7.53902 -1.23e-4,0 0.67047,-0.004 0.670347,-0.004 0,0 2.356068,3.02923 2.356068,3.02923 -0.0036,1.1424 -0.0079,2.25256 -0.01354,3.31174 -1.011981,0.003 -2.023412,0.008 -3.035214,0.0171 -0.01244,2.31959 -0.03043,4.36508 -0.05725,5.99535 -1.01e-4,0 0.670151,-0.008 0.67005,-0.008 0,0 0.58435,0.48018 1.163457,0.90286 0.583232,0.42569 1.159329,0.78989 1.159329,0.78989 -0.01767,0.56425 -0.03804,1.01751 -0.06158,1.34027 -3.071194,0.0147 -3.07104,0.0338 -3.07104,0.0338 0,0 -4.88e-4,-0.0188 -3.070411,0.0717 0,0 -0.630284,-0.17749 -1.266063,-0.41549 -0.632758,-0.23687 -1.269618,-0.53168 -1.269618,-0.53168 0.149739,-7.25879 0.0643,-20.90155 0.214035,-28.16034 z m 0.319747,27.84953 c 1.772305,-0.056 3.542893,-0.0965 5.315968,-0.12129 0.01108,-0.40035 0.02121,-0.85712 0.03043,-1.36397 0,0 -3.031814,0.0511 -3.031814,0.0511 0.04019,-2.465 0.06197,-5.7376 0.07528,-9.63988 0,0 3.034268,-0.0281 3.034268,-0.0281 3.85e-4,-0.11649 0.0067,-2.37213 0.0071,-2.48862 0.202284,-0.001 -3.236197,0.0263 -3.033957,0.0242 0,0 0.0057,-2.90697 0.01609,-5.85358 0.01045,-2.96259 0.03411,-5.63429 0.03411,-5.63429 -0.0046,1e-5 3.029226,-0.007 3.024664,-0.007 0.0058,-0.77706 0.01269,-1.53175 0.02102,-2.25512 -0.02651,2e-5 -5.271296,0.006 -5.297802,0.006 0,0 -0.03336,1.63937 -0.05449,4.45625 -0.02394,3.1907 -0.02715,6.44003 -0.04012,10.67647 -0.01276,4.16911 -0.03068,6.95641 -0.0573,9.28003 -0.02331,2.03543 -0.04347,2.89796 -0.04347,2.89796 z" />
          <path
             inkscape:original-d="m 113.00491,102.6613 c 0,0 0,26.64879 0,26.64879 0,0 -4.24038,0 -4.24038,0 0,0 -1.50691,-1.6066 -1.50691,-1.6066 0,0 0,1.6066 0,1.6066 0,0 -3.08391,0 -3.08391,0 0,0 -2.55825,-2.34006 -2.55825,-2.34006 0,-8.90621 0,-17.81243 0,-26.71864 1.51859,0 3.03719,0 4.55578,0 0.40885,0.46568 0.81771,0.93136 1.22656,1.39705 0,-0.46569 0,-0.93137 0,-1.39705 1.0747,0 2.14939,0 3.22409,0 0,0 2.38302,2.40991 2.38302,2.40991 z m -5.08145,-1.88602 c 0,6.82228 0,13.64455 0,20.46683 -3.7097,-38.009831 1.71217,17.543 -1.99753,-20.46683 -1.2616,0 -2.5232,0 -3.7848,0 0,8.55695 0,17.11391 0,25.67086 0.74761,0 1.49523,0 2.24284,0 0,-7.05512 0,-14.11024 0,-21.16536 0.68921,7.05512 1.37842,14.11024 2.06763,21.16536 0,0 3.67967,0 3.67967,0 0,-8.55695 0,-17.11391 0,-25.67086 0,0 -2.20781,0 -2.20781,0 z"
             inkscape:connector-curvature="0"
             id="path1545"
             style="font-style:normal;font-variant:normal;font-weight:normal;font-stretch:normal;font-size:35.04446793px;font-family:GraphiqueW01-Regular;-inkscape-font-specification:'GraphiqueW01-Regular, Normal';font-variant-ligatures:normal;font-variant-caps:normal;font-variant-numeric:normal;font-feature-settings:normal;text-align:start;writing-mode:lr-tb;text-anchor:start;fill:#000000;stroke-width:0.87611175"
             d="m 113.01133,102.75577 c 0,0 0.015,1.83634 0.0193,4.86918 0.004,2.7358 9.2e-4,7.51543 -0.0104,11.05658 -0.0128,4.02029 -0.0376,6.81776 -0.10125,8.66025 -0.0585,1.69179 -0.14299,2.1948 -0.14299,2.1948 0,0 -4.24982,-0.19361 -4.24982,-0.19361 0,0 -1.45503,-0.709 -1.45503,-0.709 0,0 -0.0551,0.65714 -0.0551,0.65714 0,0 -3.09011,-0.078 -3.09011,-0.078 0,0 -0.61948,-0.20684 -1.2473,-0.47034 -0.62448,-0.26209 -1.25551,-0.57844 -1.25551,-0.57844 0.16259,-3.86494 0.14323,-19.84238 0.16632,-28.00049 0.0148,0 4.54263,0.002 4.55745,0.002 0.41119,0.47326 0.82269,0.96106 1.2346,1.46182 -0.002,-0.49952 -0.005,-0.98784 -0.008,-1.46101 0.0184,10e-6 3.20686,0.003 3.22525,0.003 0,0 2.4121,2.58659 2.4121,2.58659 z m -5.10788,-2.05011 c 0.032,5.15693 0.0148,18.99948 -0.0365,23.32991 -0.37181,-3.91367 -0.79693,-9.35365 -0.95607,-11.36461 -0.10675,-1.34876 -0.24821,-3.11288 -0.35495,-4.46165 -0.0714,-0.88504 0.14314,1.7853 0.35495,4.46166 0.2118,2.67635 0.42008,5.23867 0.35057,4.38449 -0.0445,-0.54653 -0.12921,-1.58736 -0.35057,-4.38449 -0.118,-1.49093 -0.62375,-8.03618 -1.00734,-11.96765 0.008,10e-6 -3.79716,-0.003 -3.78926,-0.003 -0.0154,7.90876 -0.004,23.23205 -0.15141,27.17897 0.75153,0.007 1.50294,0.0162 2.25453,0.0285 0.13801,-3.42293 0.13841,-14.51689 0.14298,-22.18594 0.74785,9.02326 1.32646,17.42025 1.93557,22.22719 0,0 3.69932,0.10861 3.69932,0.10861 0.14724,-3.11388 0.18341,-20.31594 0.11849,-27.34896 0,0 -2.21036,-0.003 -2.21036,-0.003 z" />
          <path
             inkscape:original-d="m 116.53673,100.25139 c 1.10974,0 2.21949,0 3.32923,0 0,0 2.34798,2.54962 2.34798,2.54962 0,0 0,26.50908 0,26.50908 -1.03965,0 -2.07931,0 -3.11896,0 0,0 -2.55825,-2.34006 -2.55825,-2.34006 0,-26.71864 0,0 0,-26.71864 z m 0.52567,26.19475 c 0.7593,0 1.51859,0 2.27789,0 0,-8.55695 0,-17.11391 0,-25.67086 -0.7593,0 -1.51859,0 -2.27789,0 0,8.55695 0,17.11391 0,25.67086 z"
             inkscape:connector-curvature="0"
             id="path1547"
             style="font-style:normal;font-variant:normal;font-weight:normal;font-stretch:normal;font-size:35.04446793px;font-family:GraphiqueW01-Regular;-inkscape-font-specification:'GraphiqueW01-Regular, Normal';font-variant-ligatures:normal;font-variant-caps:normal;font-variant-numeric:normal;font-feature-settings:normal;text-align:start;writing-mode:lr-tb;text-anchor:start;fill:#000000;stroke-width:0.87611175"
             d="m 116.51612,100.17643 c 0.0547,8e-5 3.27559,0.005 3.33033,0.005 0,0 0.60203,0.66253 1.20464,1.36359 0.60034,0.69842 1.19985,1.43054 1.19985,1.43054 0,0 0.0275,1.86567 0.0374,4.92508 0.009,2.74707 0.007,7.58147 -0.001,11.13935 -0.01,4.05086 -0.0307,6.90719 -0.10438,8.81673 -0.0679,1.75937 -0.17495,2.33176 -0.17495,2.33176 -1.04249,-0.0906 -2.08446,-0.17565 -3.12686,-0.25499 0,0 -0.60678,-0.27008 -1.22496,-0.59079 -0.61456,-0.31884 -1.23834,-0.6861 -1.23834,-0.6861 0.10598,-1.68871 0.13026,-4.66858 0.14177,-6.32333 0.0119,-1.70555 0.0167,-3.65281 0.0185,-4.37546 0.005,-1.96829 0.004,-1.97657 0.004,-1.97657 0,0 6.3e-4,0.006 0.003,-2.02543 7e-4,-0.73634 0.003,-2.85376 1.8e-4,-4.88327 -0.002,-1.81752 -0.007,-5.87371 -0.0682,-8.89627 z m 0.44744,28.20475 c 0.7634,0.0436 1.52659,0.0899 2.28995,0.13862 0.15284,-2.75776 0.21685,-21.21887 0.0794,-27.78953 0.017,5e-5 -2.29733,-0.006 -2.28028,-0.006 0.12131,6.66468 0.0627,24.83743 -0.0891,27.65722 z" />
          <path
             inkscape:original-d="m 137.09798,102.6613 c 0,8.88293 0,17.76586 0,26.64879 -1.41346,0 -2.82692,0 -4.24038,0 0,0 -1.50691,-1.6066 -1.50691,-1.6066 0,0.53553 0,1.07107 0,1.6066 -1.02797,0 -2.05594,0 -3.08391,0 0,0 -2.55825,-2.34006 -2.55825,-2.34006 0,-8.90621 0,-17.81243 0,-26.71864 1.51859,0 3.03719,0 4.55578,0 0.40885,0.46568 0.81771,0.93136 1.22656,1.39705 0,-0.46569 0,-0.93137 0,-1.39705 1.0747,0 2.14939,0 3.22409,0 0,0 2.38302,2.40991 2.38302,2.40991 z m -5.08145,-1.88602 c 0,6.82228 0,13.64455 0,20.46683 -0.66584,-6.82228 -1.33169,-13.64455 -1.99753,-20.46683 -1.2616,0 -2.5232,0 -3.7848,0 0,8.55695 0,17.11391 0,25.67086 0.74761,0 1.49523,0 2.24284,0 0,-7.05512 0,-14.11024 0,-21.16536 3.3599,34.39371 -1.29227,-13.228351 2.06763,21.16536 1.22656,0 2.45311,0 3.67967,0 0,-8.55695 0,-17.11391 0,-25.67086 0,0 -2.20781,0 -2.20781,0 z"
             inkscape:connector-curvature="0"
             id="path1549"
             style="font-style:normal;font-variant:normal;font-weight:normal;font-stretch:normal;font-size:35.04446793px;font-family:GraphiqueW01-Regular;-inkscape-font-specification:'GraphiqueW01-Regular, Normal';font-variant-ligatures:normal;font-variant-caps:normal;font-variant-numeric:normal;font-feature-settings:normal;text-align:start;writing-mode:lr-tb;text-anchor:start;fill:#000000;stroke-width:0.87611175"
             d="m 137.1667,102.96313 c 0.17182,8.08939 0.0825,26.76288 -0.23365,28.85941 -1.41831,-0.18323 -2.8348,-0.35955 -4.25289,-0.52822 0,0 -1.41337,-1.01397 -1.41337,-1.01397 -0.0278,0.31275 -0.0601,0.59295 -0.0978,0.83723 -1.03106,-0.11849 -2.06152,-0.23258 -3.09248,-0.34199 0,0 -0.6002,-0.3209 -1.21328,-0.6881 -0.60943,-0.36502 -1.22937,-0.77428 -1.22937,-0.77428 0.17212,-2.49516 0.26343,-22.61366 0.057,-29.1212 0.49611,9.4e-4 4.0609,0.008 4.55701,0.009 0.4271,0.49986 0.85206,1.01487 1.2751,1.54297 -0.0136,-0.52504 -0.0295,-1.03965 -0.0482,-1.54057 -0.45206,-8.8e-4 3.6769,0.007 3.22483,0.006 0,0 2.46719,2.75372 2.46719,2.75372 z m -5.14603,-2.1887 c 0.15342,4.63926 0.13135,20.47465 0.0914,24.37898 -0.59995,-6.80121 -1.18941,-16.93878 -2.09054,-24.38667 0.15495,5.9e-4 -3.94299,-0.0146 -3.78804,-0.014 0.17797,6.30979 0.10263,25.65995 -0.0506,28.27671 0.75143,0.0622 1.50261,0.12654 2.25396,0.1929 0.16275,-2.75797 0.18169,-16.56075 0.12965,-23.24322 0.23441,2.65484 0.95203,11.87535 0.9371,11.68833 0.1858,2.32666 0.31671,3.86778 0.3459,4.21237 0.0857,1.01205 -0.0695,-0.79956 -0.22898,-2.76082 -0.15944,-1.96125 -0.32081,-4.03056 -0.23234,-2.90736 0.0192,0.24363 0.17611,2.24398 0.34846,4.32165 0.19656,2.36954 0.52669,5.95142 0.77786,8.87762 1.23282,0.11483 2.46438,0.23467 3.69694,0.35908 0.14528,-2.4673 0.22538,-23.00939 0.0186,-28.98694 0,0 -2.20942,-0.009 -2.20942,-0.009 z" />
          <path
             inkscape:original-d="m 148.37463,128.53798 c -0.6308,0.5607 -1.41346,0.84106 -2.34798,0.84106 -0.70089,0 -1.39009,-0.18691 -2.06762,-0.56071 -0.65417,-0.37381 -1.24992,-0.86443 -1.78727,-1.47187 -0.51399,-0.60744 -0.93452,-1.29664 -1.2616,-2.06762 -0.30372,-0.79434 -0.45558,-1.60037 -0.45558,-2.41807 0,-6.03933 0,-12.07866 0,-18.11799 0,-1.47187 0.38549,-2.64002 1.15647,-3.50445 0.79434,-0.86443 1.84567,-1.296642 3.154,-1.296642 0.81771,0 1.67046,0.303722 2.55825,0.911162 0.91115,0.58407 1.91576,1.51859 3.01382,2.80355 0.42053,0.49062 0.71257,0.95788 0.87611,1.40178 0.18691,0.4439 0.28036,0.93452 0.28036,1.47187 0,1.61204 0,3.22409 0,4.83614 -1.09806,0 -2.19612,0 -3.29418,0 0,0 -2.03258,-1.96249 -2.03258,-1.96249 0,1.22655 0,2.4531 0,3.67966 0.99293,0 1.98585,0 2.97878,0 0.78266,0.85275 1.56532,1.7055 2.34798,2.55825 0,0 0,13.66734 0,13.66734 -0.80602,0 -1.61205,0 -2.41807,0 -0.23363,-0.25699 -0.46726,-0.51398 -0.70089,-0.77097 z m 0.24531,-24.35591 c 0,-0.51399 -0.10513,-0.99293 -0.3154,-1.43682 -0.1869,-0.46726 -0.45557,-0.86444 -0.80602,-1.19152 -0.35045,-0.35044 -0.7593,-0.61912 -1.22656,-0.80602 -0.46726,-0.1869 -0.96956,-0.28035 -1.50691,-0.28035 -1.14479,0 -2.06762,0.38548 -2.76851,1.15646 -0.67753,0.77098 -1.01629,1.81063 -1.01629,3.11896 0,6.03933 0,12.07866 0,18.11799 0,0.53734 0.0701,1.03965 0.21026,1.50691 0.16355,0.4439 0.37381,0.84107 0.6308,1.19152 0.25699,0.32708 0.54903,0.59575 0.87612,0.80602 0.35044,0.1869 0.72425,0.28035 1.12142,0.28035 0.39717,0 0.77098,-0.11682 1.12142,-0.35044 0.37381,-0.23364 0.79434,-0.61913 1.2616,-1.15647 0.19859,0.43221 0.39717,0.86443 0.59576,1.29665 0.60744,0 1.21487,0 1.82231,0 0,-4.27543 0,-8.55086 0,-12.82628 -1.33169,0 -2.66338,0 -3.99507,0 0,0.71257 0,1.42514 0,2.13771 0.51399,0 1.02797,0 1.54196,0 0,2.47647 0,4.95295 0,7.42943 0,0.3738 -0.11682,0.67752 -0.35045,0.91116 -0.21027,0.23362 -0.5023,0.35044 -0.87611,0.35044 -0.42053,0 -0.77098,-0.1285 -1.05133,-0.38549 -0.25699,-0.28036 -0.38549,-0.6308 -0.38549,-1.05133 0,-6.38978 0,-12.77955 0,-19.16932 0,-0.37382 0.10513,-0.66586 0.3154,-0.87612 0.23363,-0.23363 0.53735,-0.35044 0.91116,-0.35044 0.42053,0 0.7593,0.14017 1.01629,0.42053 0.28035,0.25699 0.42053,0.59575 0.42053,1.01629 0,0 0,4.45065 0,4.45065 0.8177,0 1.63541,0 2.45311,0 0,-1.43683 0,-2.87365 0,-4.31047 z"
             inkscape:connector-curvature="0"
             id="path1551"
             style="font-style:normal;font-variant:normal;font-weight:normal;font-stretch:normal;font-size:35.04446793px;font-family:GraphiqueW01-Regular;-inkscape-font-specification:'GraphiqueW01-Regular, Normal';font-variant-ligatures:normal;font-variant-caps:normal;font-variant-numeric:normal;font-feature-settings:normal;text-align:start;writing-mode:lr-tb;text-anchor:start;fill:#000000;stroke-width:0.87611175"
             d="m 148.3062,132.90592 c -0.66699,0.2842 -1.48952,0.32648 -2.42097,0.19089 -0.69798,-0.10161 -1.3844,-0.30995 -2.0314,-0.62636 -0.62788,-0.31529 -1.19636,-0.70204 -1.70272,-1.18735 -0.48416,-0.48366 -0.87761,-1.04277 -1.18196,-1.70772 -0.28029,-0.68192 -0.41556,-1.41045 -0.40343,-2.18991 0.0335,-2.15455 0.0446,-17.95392 0.003,-21.84909 -0.0197,-1.82817 0.33433,-3.20326 1.0718,-4.1944 0.75734,-0.98647 1.78954,-1.464973 3.09478,-1.465317 0.81402,-2.14e-4 1.69159,0.337377 2.60405,1.045807 0.93794,0.68372 1.97882,1.79832 3.10117,3.42644 0.42964,0.62143 0.72786,1.22216 0.89571,1.79547 0.19129,0.57403 0.28798,1.21199 0.29013,1.91434 0.006,1.94061 0.002,4.4251 5.4e-4,6.3909 -0.27306,-0.0109 -3.01456,-0.12146 -3.28762,-0.13237 0,0 -2.02994,-2.65006 -2.02994,-2.65006 2.6e-4,1.80684 -7.8e-4,2.99065 -5.2e-4,4.7975 1.13862,0.0525 1.83638,0.0848 2.97499,0.13727 0.78506,1.14949 1.56062,2.27792 2.34756,3.40631 0,0 0.0329,4.41257 0.007,7.98619 -0.0137,1.87983 -0.0505,3.24377 -0.11906,4.3341 -0.0631,1.00371 -0.14011,1.53751 -0.14011,1.53751 0.0983,0.0147 -2.52588,-0.37656 -2.4276,-0.36183 -0.21327,-0.19439 -0.42824,-0.39381 -0.6449,-0.59832 z m 0.42584,-27.92369 c -0.008,-0.64724 -0.12321,-1.24357 -0.34519,-1.78956 -0.1992,-0.57434 -0.48109,-1.05411 -0.84389,-1.44491 -0.36351,-0.41836 -0.78462,-0.73336 -1.2604,-0.95093 -0.47552,-0.21744 -0.98355,-0.3248 -1.52051,-0.32597 -1.14285,-0.002 -2.05059,0.43031 -2.72189,1.3207 -0.65057,0.89405 -0.96291,2.12757 -0.94538,3.75468 0.0412,3.8279 0.0307,19.78962 -0.001,21.88541 -0.008,0.51373 0.0528,0.97771 0.18234,1.40021 0.15352,0.40428 0.35311,0.7571 0.59937,1.0677 0.24682,0.29148 0.53018,0.53264 0.84968,0.73043 0.34307,0.18221 0.71624,0.29631 1.11399,0.34305 0.39752,0.0467 0.78062,0.004 1.14072,-0.13863 0.38275,-0.13953 0.82365,-0.40134 1.30619,-0.81486 0.18696,0.39617 0.37121,0.77747 0.55269,1.14406 0.0428,0.005 1.78652,0.213 1.82929,0.21807 0.14808,-2.90639 0.0947,-9.15483 0.0914,-14.12326 35.43775,1.69951 -39.42928,-1.89075 -3.99153,-0.19124 5e-5,0.15012 0.002,2.54127 0.002,2.69139 0.0618,0.003 1.48001,0.0824 1.54178,0.0858 0.004,2.89065 0.0136,6.14401 -0.0193,8.36429 -0.005,0.36364 -0.12816,0.63771 -0.36734,0.82993 -0.21532,0.19416 -0.51215,0.2685 -0.88678,0.23045 -0.42118,-0.0428 -0.77143,-0.19293 -1.04647,-0.4538 -0.25203,-0.28074 -0.37437,-0.61739 -0.36826,-1.02282 0.0289,-1.91761 0.0379,-19.70373 -0.0164,-23.33078 -0.007,-0.46076 0.0917,-0.81459 0.29701,-1.06691 0.22788,-0.28002 0.52896,-0.41724 0.90288,-0.41307 0.42052,0.005 0.76415,0.1773 1.02782,0.52278 0.2867,0.31753 0.43435,0.73653 0.44149,1.26102 0,0 0.0177,1.38548 0.0249,2.82195 0.007,1.43168 0.008,2.88786 0.008,2.88786 3.14388,0.0986 -0.69247,-0.0217 2.45141,0.0769 -8.7e-4,-1.85792 -0.006,-3.79112 -0.0277,-5.56991 z" />
          <path
             inkscape:original-d="m 159.9849,109.85418 q 0,0.59576 0.0701,1.12142 0.10513,0.49063 0.35045,1.05134 0.28035,0.52566 0.70089,1.15646 0.45557,0.63081 1.15646,1.47187 0.77098,0.9462 1.29665,1.75223 0.52567,0.77097 0.84107,1.54195 0.3154,0.73594 0.42053,1.50691 0.14018,0.73594 0.14018,1.64709 v 4.38056 q 0,0.91116 -0.3154,1.64709 -0.28036,0.77098 -0.84107,1.29665 -0.52567,0.56071 -1.2616,0.87611 -0.73594,0.3154 -1.61205,0.3154 -1.75222,0 -3.11895,-1.22656 -0.77098,-0.70089 -1.22656,-1.12142 -0.42053,-0.38549 -0.66585,-0.6308 -0.24531,-0.21027 -0.38548,-0.38549 -0.14018,-0.17522 -0.35045,-0.42053 -0.49062,-0.6308 -0.70089,-1.15647 -0.17522,-0.56071 -0.17522,-1.22656 v -6.9388 h 3.32922 l 1.64709,1.85736 q -0.035,-0.6308 -0.17522,-1.15647 -0.14018,-0.56071 -0.45558,-1.12142 -0.3154,-0.56072 -0.84106,-1.19152 -0.49063,-0.66584 -1.29665,-1.54195 -2.2078,-2.5232 -2.2078,-5.36181 v -3.4694 q 0,-0.9462 0.3154,-1.75222 0.35044,-0.84107 0.91116,-1.43683 0.56071,-0.59575 1.33168,-0.9462 0.77098,-0.35044 1.68214,-0.35044 0.56071,0 1.08638,0.17522 0.52566,0.17522 1.12142,0.6308 0.6308,0.42054 1.33169,1.12142 0.73593,0.70089 1.68214,1.75223 0.66584,0.73593 0.91115,1.47187 0.28036,0.70089 0.28036,1.68213 v 4.59083 h -3.11896 l -1.85736,-1.85736 z m 2.10267,-5.43189 q 0,-1.68214 -1.01629,-2.76852 -0.98124,-1.08637 -2.5232,-1.08637 -0.77098,0 -1.47187,0.3154 -0.66584,0.3154 -1.15647,0.84106 -0.49062,0.52567 -0.80602,1.2616 -0.28035,0.70089 -0.28035,1.54196 v 3.4694 q 0,0.77098 0.10513,1.43683 0.14018,0.6308 0.42053,1.2616 0.3154,0.6308 0.80603,1.33169 0.49062,0.66584 1.22655,1.50691 0.70089,0.77098 1.15647,1.40178 0.45558,0.6308 0.73593,1.22655 0.28036,0.56072 0.38549,1.15647 0.14018,0.56071 0.14018,1.22656 v 4.27542 q 0,0.73594 -0.35044,1.19152 -0.35045,0.45557 -0.94621,0.45557 -0.59575,0 -1.01628,-0.49062 -0.38549,-0.49062 -0.38549,-1.22656 v -5.71224 h -2.27789 v 6.41313 q 0,1.43683 1.05133,2.38303 1.05133,0.91115 2.66338,0.91115 1.577,0 2.55825,-1.01629 0.98124,-1.05133 0.98124,-2.69842 v -4.38056 q 0,-0.87611 -0.14018,-1.61204 -0.10513,-0.77098 -0.42053,-1.47187 -0.3154,-0.73594 -0.84107,-1.50691 -0.52567,-0.77098 -1.29664,-1.71718 -0.66585,-0.80603 -1.12143,-1.43683 -0.42053,-0.6308 -0.70089,-1.19151 -0.24531,-0.59575 -0.35044,-1.12142 -0.10513,-0.56071 -0.10513,-1.19151 v -2.90869 q 0,-0.73594 0.38549,-1.19152 0.38548,-0.45557 0.98124,-0.45557 0.59576,0 0.9462,0.45557 0.38549,0.45558 0.38549,1.22656 v 4.06516 h 2.27789 z"
             inkscape:connector-curvature="0"
             id="path1553"
             style="font-style:normal;font-variant:normal;font-weight:normal;font-stretch:normal;font-size:35.04446793px;font-family:GraphiqueW01-Regular;-inkscape-font-specification:'GraphiqueW01-Regular, Normal';font-variant-ligatures:normal;font-variant-caps:normal;font-variant-numeric:normal;font-feature-settings:normal;text-align:start;writing-mode:lr-tb;text-anchor:start;fill:#000000;stroke-width:0.87611175"
             d="m 160.08699,112.73028 c -0.001,0.53705 0.0207,1.04306 0.0663,1.51801 0.0689,0.44409 0.18436,0.92119 0.34657,1.43054 0.18538,0.47856 0.4177,1.0061 0.69677,1.58024 0.30182,0.57425 0.68712,1.24722 1.15346,2.00959 0.51334,0.85767 0.9476,1.64563 1.30034,2.36065 0.3528,0.68516 0.63699,1.36132 0.85202,2.02556 0.21476,0.63455 0.36057,1.27314 0.43664,1.91129 0.099,0.61033 0.15236,1.28203 0.15831,2.00092 0.0141,1.70958 0.0207,3.37087 -0.006,4.82659 -0.0114,0.61367 -0.13336,1.13124 -0.36458,1.56037 -0.20861,0.4534 -0.51413,0.79628 -0.91216,1.04196 -0.37579,0.26847 -0.82168,0.44202 -1.332,0.53316 -0.5095,0.091 -1.06203,0.0858 -1.6481,-0.004 -1.16469,-0.17793 -2.19101,-0.63536 -3.04032,-1.39021 -0.48325,-0.4345 -0.87882,-0.79937 -1.16767,-1.07017 -0.26863,-0.25027 -0.48301,-0.45843 -0.64019,-0.61955 -0.15844,-0.14126 -0.2825,-0.26912 -0.37205,-0.38336 -0.0897,-0.11445 -0.20176,-0.25247 -0.33741,-0.41649 -0.31493,-0.41744 -0.53969,-0.8031 -0.67303,-1.1537 -0.10941,-0.37041 -0.16132,-0.77797 -0.15631,-1.22932 0.0241,-2.16838 0.004,-5.26597 -0.006,-7.99558 1.10594,0.0637 2.21314,0.12668 3.31778,0.18806 0.5515,0.82029 1.10109,1.6278 1.65409,2.42826 -0.0266,-0.52102 -0.0879,-1.00789 -0.18355,-1.45615 -0.0958,-0.47783 -0.24962,-0.96351 -0.46117,-1.45553 -0.21151,-0.49195 -0.49268,-1.02125 -0.8431,-1.58711 -0.32693,-0.59459 -0.75937,-1.29129 -1.29466,-2.08665 -1.46843,-2.29051 -2.19472,-4.71101 -2.19383,-7.23013 5.3e-4,-1.51919 -0.002,-3.0788 -0.0152,-4.54844 -0.007,-0.81131 0.0871,-1.5498 0.28404,-2.21932 0.21969,-0.69848 0.50743,-1.28455 0.86555,-1.76592 0.35801,-0.48123 0.78708,-0.85874 1.28892,-1.13781 0.50134,-0.27878 1.05637,-0.41878 1.6633,-0.420233 0.37359,-8.95e-4 0.73946,0.06769 1.0959,0.207393 0.35617,0.1396 0.74176,0.393 1.15164,0.76524 0.43237,0.3438 0.89107,0.8074 1.3711,1.39857 0.50419,0.59229 1.07568,1.34053 1.71328,2.2622 0.44822,0.64459 0.75341,1.29643 0.91706,1.95178 0.18696,0.6249 0.27893,1.37745 0.27614,2.26169 -0.0103,3.24218 -0.0129,3.00986 -0.0232,6.25204 -1.03137,-0.0322 -2.06409,-0.0663 -3.09676,-0.10193 1.61459,2.26041 -3.45529,-4.83481 -1.84069,-2.5744 3e-5,-0.0125 -9.1e-4,0.34417 -8.8e-4,0.33164 z m 2.0976,-7.22506 c -0.009,-1.47166 -0.36612,-2.65049 -1.06765,-3.55839 -0.67629,-0.90529 -1.54073,-1.34011 -2.56616,-1.34023 -0.51354,-6e-5 -0.99964,0.12645 -1.45699,0.3797 -0.43437,0.25351 -0.8083,0.5926 -1.12302,1.02109 -0.31479,0.4286 -0.57085,0.94727 -0.76988,1.56162 -0.17621,0.58526 -0.26078,1.23715 -0.25429,1.95935 0.0132,1.47153 0.0152,3.03356 0.0144,4.55438 -3.4e-4,0.68416 0.0337,1.32449 0.10273,1.92032 0.0923,0.56519 0.23113,1.13265 0.41658,1.70183 0.20867,0.56989 0.47569,1.17361 0.80103,1.80962 0.32498,0.60419 0.73282,1.29108 1.22159,2.05395 0.46563,0.70032 0.8511,1.33364 1.15488,1.89767 0.30396,0.56437 0.55034,1.10776 0.73886,1.62895 0.18838,0.49116 0.3191,0.99096 0.392,1.497 0.096,0.47775 0.14596,0.99295 0.14967,1.54038 0.0116,1.71127 0.0241,3.47712 0.0203,4.97752 -0.001,0.5324 -0.12133,0.93822 -0.35865,1.2284 -0.23683,0.28958 -0.55644,0.40882 -0.9538,0.36826 -0.3972,-0.0405 -0.73535,-0.23822 -1.01119,-0.59733 -0.25332,-0.35795 -0.37792,-0.79164 -0.37556,-1.31582 0.009,-1.89684 -0.01,-4.44276 -0.0209,-6.70237 -0.0571,-0.003 -2.21351,-0.13054 -2.27061,-0.13387 0.0104,2.53573 0.0275,5.30902 0.006,7.35612 -0.0104,0.97695 0.32257,1.75928 1.00596,2.41341 0.67843,0.62764 1.56647,1.00271 2.64015,1.13424 1.05148,0.12881 1.92977,-0.0625 2.60029,-0.63934 0.67461,-0.60232 1.01451,-1.48133 1.01629,-2.68257 0.002,-1.54515 -0.0137,-3.37446 -0.028,-5.13622 -0.006,-0.72511 -0.0578,-1.40889 -0.15507,-2.04179 -0.0743,-0.66184 -0.21753,-1.3056 -0.42951,-1.92663 -0.21212,-0.65152 -0.49331,-1.32722 -0.84319,-2.02466 -0.34937,-0.69642 -0.78102,-1.48086 -1.29133,-2.34583 -0.44073,-0.73709 -0.81273,-1.39688 -1.11353,-1.97252 -0.27799,-0.57564 -0.50955,-1.11835 -0.69456,-1.62699 -0.16172,-0.53938 -0.27707,-1.04525 -0.34606,-1.5172 -0.069,-0.50341 -0.10312,-1.03579 -0.10285,-1.59656 6.1e-4,-1.28254 -0.001,-2.58377 -0.0117,-3.8296 -0.005,-0.63548 0.11664,-1.14166 0.3676,-1.52537 0.25067,-0.38328 0.57415,-0.57196 0.97073,-0.56807 0.39642,0.004 0.71553,0.19902 0.95401,0.59027 0.262,0.39184 0.3962,0.9205 0.40073,1.59143 0.0117,1.73085 0.008,3.62201 0.004,5.41168 -0.0363,-0.001 2.30231,0.0623 2.26602,0.0613 0.006,-1.84033 0.0121,-3.79798 0.001,-5.57715 z" />
        </g>
      </g>
      <path
         inkscape:export-ydpi="200"
         inkscape:export-xdpi="200"
         transform="scale(0.26458333)"
         inkscape:connector-curvature="0"
         id="path1568"
         d="m 107.3231,470.8423 c -0.39521,-18.56387 0.0111,-91.33151 0.5994,-107.35582 l 0.32915,-8.9651 h 4.53343 4.53344 l -0.1493,17.04632 c -0.0821,9.37548 -0.11195,23.80804 -0.0663,32.07235 l 0.083,15.02602 h 5.80838 5.80838 l 0.001,-21.08694 c 6.6e-4,-11.59781 0.15052,-26.03037 0.33297,-32.07234 l 0.33171,-10.98541 h 4.51258 4.51258 l -0.28776,5.17703 c -0.15827,2.84737 -0.4338,32.25387 -0.61229,65.34778 l -0.32453,60.17075 -4.32395,0.55816 c -2.37817,0.307 -4.37229,0.50428 -4.43137,0.43841 -0.0591,-0.0659 0.0385,-12.81376 0.21695,-28.32865 l 0.32438,-28.20888 -5.64236,0.17949 c -3.10329,0.0987 -5.7884,0.32554 -5.9669,0.50405 -0.17851,0.17849 -0.45965,13.17133 -0.62477,28.87295 l -0.30021,28.54842 -3.07679,0.31942 c -1.69223,0.17568 -3.67514,0.4333 -4.40645,0.5725 l -1.32967,0.25307 z"
         style="fill:#ffffff;fill-opacity:0.16078431;stroke:none;stroke-width:0.50507629;stroke-opacity:0" />
      <path
         inkscape:export-ydpi="200"
         inkscape:export-xdpi="200"
         transform="scale(0.26458333)"
         inkscape:connector-curvature="0"
         id="path1570"
         d="m 107.32356,469.3397 c -0.39341,-20.00852 -0.0109,-87.51958 0.59539,-105.0956 l 0.33541,-9.72272 h 4.53388 4.53388 l -0.15472,17.29886 c -0.0851,9.51438 -0.11574,23.94693 -0.0681,32.07234 l 0.0866,14.77349 h 5.80838 5.80838 v -20.62651 c 0,-11.34457 0.14989,-25.77713 0.3331,-32.07234 l 0.33311,-11.44584 h 4.51245 4.51244 l -0.28776,5.17703 c -0.15827,2.84737 -0.4338,32.25387 -0.61229,65.34778 l -0.32453,60.17075 -4.32395,0.55816 c -2.37817,0.307 -4.37229,0.50428 -4.43137,0.43841 -0.0591,-0.0659 0.0385,-12.80919 0.21695,-28.3185 l 0.32438,-28.19874 -5.64139,0.167 c -3.10276,0.0919 -5.79024,0.31648 -5.97218,0.49917 -0.18193,0.18269 -0.46311,13.17205 -0.62484,28.86524 l -0.29406,28.53309 -3.33021,0.3412 c -1.83162,0.18766 -3.81468,0.45549 -4.4068,0.59518 l -1.07659,0.25399 z"
         style="fill:#ffffff;fill-opacity:0.16078431;stroke:none;stroke-width:0.50507629;stroke-opacity:0" />
      <path
         inkscape:export-ydpi="200"
         inkscape:export-xdpi="200"
         transform="scale(0.26458333)"
         inkscape:connector-curvature="0"
         id="path1572"
         d="m 107.32357,468.8346 c -0.39096,-20.38713 -0.0113,-86.77358 0.59821,-104.5905 l 0.33258,-9.72272 h 4.52732 4.52732 l -0.13591,16.79378 c -0.0748,9.23659 -0.10244,23.66914 -0.0615,32.07235 l 0.0744,15.27856 h 5.80838 5.80838 v -20.62651 c 0,-11.34457 0.14989,-25.77713 0.3331,-32.07234 l 0.33311,-11.44584 h 4.51245 4.51244 l -0.28776,5.17703 c -0.15827,2.84737 -0.4338,32.25387 -0.61229,65.34778 l -0.32453,60.17075 -4.32395,0.55816 c -2.37817,0.307 -4.37047,0.50428 -4.42734,0.43841 -0.0569,-0.0659 0.0408,-12.8092 0.21696,-28.3185 l 0.32034,-28.19875 -5.64139,0.16701 c -3.10276,0.0919 -5.79024,0.31648 -5.97218,0.49917 -0.18193,0.18269 -0.46311,13.17205 -0.62484,28.86524 l -0.29406,28.53309 -3.33021,0.3412 c -1.83162,0.18766 -3.81464,0.45548 -4.40672,0.59516 l -1.0765,0.25397 z"
         style="fill:#ffffff;fill-opacity:0.16078431;stroke:none;stroke-width:0.50507629;stroke-opacity:0" />
      <path
         inkscape:export-ydpi="200"
         inkscape:export-xdpi="200"
         transform="scale(0.26458333)"
         inkscape:connector-curvature="0"
         id="path1574"
         d="m 107.32377,467.82441 c -0.38914,-21.30645 -0.0222,-84.86398 0.59658,-103.32778 l 0.33429,-9.97525 h 4.52415 4.52416 l -0.12793,16.79378 c -0.0704,9.23659 -0.0967,23.66914 -0.0585,32.07235 l 0.0694,15.27856 h 5.80838 5.80838 l 0.001,-20.32932 c 6.5e-4,-11.18113 0.15058,-25.61369 0.3332,-32.07235 l 0.33205,-11.74302 h 4.51377 4.51378 l -0.28863,4.92449 c -0.15875,2.70847 -0.43581,32.11509 -0.61569,65.34804 l -0.32707,60.42354 -4.32197,0.55791 c -2.37709,0.30685 -4.36665,0.50402 -4.42126,0.43815 -0.0546,-0.0659 0.043,-12.8092 0.21696,-28.31851 l 0.31623,-28.19875 -5.64139,0.16702 c -3.10276,0.0919 -5.79024,0.31648 -5.97218,0.49917 -0.18193,0.18269 -0.46311,13.17205 -0.62484,28.86524 l -0.29406,28.53309 -3.33021,0.3412 c -1.83162,0.18766 -3.81457,0.45546 -4.40657,0.59513 l -1.07635,0.25392 z"
         style="fill:#ffffff;fill-opacity:0.16078431;stroke:none;stroke-width:0.50507629;stroke-opacity:0" />
      <path
         inkscape:export-ydpi="200"
         inkscape:export-xdpi="200"
         transform="scale(0.26458333)"
         inkscape:connector-curvature="0"
         id="path1576"
         d="m 107.32396,467.31931 c -0.3848,-21.57454 -0.0157,-84.5389 0.60397,-103.04284 l 0.32671,-9.75509 h 4.51722 4.51722 l -0.11067,16.79378 c -0.0609,9.23659 -0.0841,23.66914 -0.0516,32.07235 l 0.0591,15.27856 h 5.80838 5.80838 l 0.001,-20.32932 c 6.5e-4,-11.18113 0.15058,-25.61369 0.3332,-32.07235 l 0.33205,-11.74302 h 4.51377 4.51378 l -0.28863,4.92449 c -0.15875,2.70847 -0.43581,32.11509 -0.61569,65.34804 l -0.32707,60.42354 -4.32197,0.55791 c -2.37709,0.30685 -4.36665,0.50402 -4.42126,0.43815 -0.0546,-0.0659 0.043,-12.8092 0.21696,-28.31851 l 0.31623,-28.19875 -5.64139,0.16702 c -3.10276,0.0919 -5.79266,0.31891 -5.97756,0.50455 -0.18489,0.18565 -0.46567,13.17497 -0.62395,28.86515 l -0.28778,28.5276 -3.33111,0.3413 c -1.83211,0.18772 -3.81543,0.45556 -4.40738,0.59521 l -1.07628,0.2539 z"
         style="fill:#ffffff;fill-opacity:0.16078431;stroke:none;stroke-width:0.50507629;stroke-opacity:0" />
      <path
         inkscape:export-ydpi="200"
         inkscape:export-xdpi="200"
         transform="scale(0.26458333)"
         inkscape:connector-curvature="0"
         id="path1578"
         d="m 107.43105,477.93614 c -0.2883,-16.12832 0.074,-102.32574 0.47785,-113.69204 l 0.34546,-9.72272 h 4.50971 4.5097 l -0.0928,16.54125 c -0.051,9.09768 -0.0708,23.53024 -0.0439,32.07234 l 0.0489,15.5311 h 5.80838 5.80838 v -19.86873 c 0,-10.9278 0.14999,-25.36035 0.33332,-32.07234 l 0.33332,-12.20362 h 4.52365 4.52364 l -0.31344,5.17703 c -0.17239,2.84737 -0.45402,32.25399 -0.62584,65.34806 l -0.31241,60.17102 -4.32181,0.55789 c -2.37699,0.30684 -4.35876,0.504 -4.40392,0.43813 -0.0452,-0.0659 0.0525,-12.80921 0.21696,-28.31852 l 0.29906,-28.19877 -5.64139,0.16703 c -3.10276,0.0919 -5.79266,0.31893 -5.97756,0.50457 -0.18489,0.18565 -0.46567,13.17497 -0.62395,28.86515 l -0.28778,28.5276 -3.33111,0.3413 c -1.83211,0.18772 -3.83376,0.46016 -4.44812,0.60543 l -1.11701,0.26413 z"
         style="fill:#ffffff;fill-opacity:0.16078431;stroke:none;stroke-width:0.50507629;stroke-opacity:0" />
      <path
         inkscape:export-ydpi="200"
         inkscape:export-xdpi="200"
         transform="scale(0.26458333)"
         inkscape:connector-curvature="0"
         id="path1580"
         d="m 107.32913,465.29895 c -0.36914,-22.9069 -0.0683,-73.48746 0.58595,-98.52947 l 0.32001,-12.2481 h 4.51083 4.51082 l -0.0737,16.03617 c -0.0405,8.81989 -0.0565,23.25245 -0.0354,32.07234 l 0.0383,16.03618 h 5.80838 5.80838 l 0.001,-19.57171 c 6e-4,-10.76444 0.15063,-25.19699 0.33341,-32.07234 l 0.3323,-12.50064 h 4.51337 4.51338 l -0.28959,4.67195 c -0.15927,2.56958 -0.43714,31.99197 -0.61749,65.38309 l -0.3279,60.71113 -3.59795,0.40008 c -1.97888,0.22004 -3.9226,0.40144 -4.31938,0.4031 -0.61804,0.003 -0.70291,-3.97613 -0.5922,-27.76148 0.0711,-15.27047 0.25115,-27.96177 0.40017,-28.20288 0.31251,-0.50566 -11.20804,-0.26822 -11.71565,0.24145 -0.18489,0.18565 -0.46567,13.17497 -0.62395,28.86515 l -0.28778,28.5276 -3.33111,0.3413 c -1.83211,0.18772 -3.81532,0.45553 -4.40713,0.59514 l -1.07602,0.25385 z"
         style="fill:#ffffff;fill-opacity:0.16078431;stroke:none;stroke-width:0.50507629;stroke-opacity:0" />
      <path
         inkscape:export-ydpi="200"
         inkscape:export-xdpi="200"
         transform="scale(0.26458333)"
         inkscape:connector-curvature="0"
         id="path1582"
         d="m 107.32998,465.29895 c -0.36798,-22.88569 -0.0673,-73.42288 0.58628,-98.52947 l 0.31883,-12.2481 h 4.47543 4.47542 v 32.07234 32.07235 h 5.80838 5.80838 l 0.001,-19.57171 c 6e-4,-10.76444 0.15063,-25.19699 0.33341,-32.07234 l 0.3323,-12.50064 h 4.51508 4.51507 l -0.29208,4.16688 c -0.16065,2.29178 -0.44038,31.69951 -0.62162,65.3505 l -0.32953,61.18363 -4.09738,0.52308 c -2.25356,0.28769 -4.16221,0.45825 -4.24144,0.37902 -0.2913,-0.2913 -0.0931,-55.46842 0.20098,-55.94421 0.34133,-0.55227 -11.12366,-0.37341 -11.67694,0.18216 -0.18193,0.18269 -0.46311,13.17205 -0.62484,28.86524 l -0.29406,28.53309 -3.33021,0.3412 c -1.83162,0.18766 -3.81443,0.45543 -4.40624,0.59504 l -1.07602,0.25385 z"
         style="fill:#ffffff;fill-opacity:0.16078431;stroke:none;stroke-width:0.50507629;stroke-opacity:0" />
      <path
         inkscape:export-ydpi="200"
         inkscape:export-xdpi="200"
         transform="scale(0.26458333)"
         inkscape:connector-curvature="0"
         id="path1584"
         d="m 107.3466,466.46648 c -0.32045,-19.24651 0.0866,-95.07372 0.52227,-97.29789 0.0816,-0.41669 0.1658,-3.88277 0.18706,-7.70241 l 0.0386,-6.9448 h 4.54569 4.54568 v 32.07234 32.07235 h 5.80838 5.80838 l 0.001,-19.57171 c 6e-4,-10.76444 0.15063,-25.19699 0.33341,-32.07234 l 0.3323,-12.50064 h 4.51508 4.51507 l -0.29208,4.16688 c -0.16065,2.29178 -0.44039,31.70264 -0.62164,65.35746 l -0.32956,61.19059 -2.83789,0.32282 c -1.56083,0.17755 -3.46848,0.44658 -4.2392,0.59783 l -1.40132,0.27502 0.13863,-28.36761 0.13862,-28.36761 -5.64139,0.16676 c -3.10276,0.0917 -5.79024,0.31623 -5.97218,0.49892 -0.18193,0.18269 -0.46311,13.17205 -0.62484,28.86524 l -0.29406,28.53309 -3.33021,0.3412 c -1.83162,0.18766 -3.81204,0.45483 -4.40093,0.59371 l -1.07071,0.25251 z"
         style="fill:#ffffff;fill-opacity:1;stroke:none;stroke-width:0.50507629;stroke-opacity:0" />
      <path
         inkscape:export-ydpi="200"
         inkscape:export-xdpi="200"
         transform="scale(0.26458333)"
         inkscape:connector-curvature="0"
         id="path1586"
         d="m 107.32599,467.31931 c -0.3776,-21.2835 -0.043,-78.04796 0.59562,-101.05491 l 0.32597,-11.74302 h 4.46918 4.46918 v 32.07234 32.07235 h 5.80838 5.80838 v -19.86873 c 0,-10.9278 0.14999,-25.36035 0.33332,-32.07234 l 0.33332,-12.20362 h 4.45937 4.45937 l -0.24402,12.2481 c -0.1342,6.73645 -0.35739,18.04385 -0.49598,25.12754 -0.13858,7.0837 -0.25357,30.97918 -0.25553,53.10109 l -0.004,40.22163 -2.90419,0.33111 c -1.5973,0.18211 -3.53297,0.45446 -4.30149,0.60523 l -1.3973,0.27413 0.13461,-28.38506 0.13461,-28.38505 -5.67213,0.21721 c -3.11968,0.11947 -5.79581,0.34087 -5.94695,0.49202 -0.15114,0.15114 -0.41973,13.12618 -0.59686,28.83341 l -0.32207,28.55862 -3.32744,0.3409 c -1.83009,0.1875 -3.81177,0.45517 -4.40372,0.59482 l -1.07628,0.2539 z"
         style="fill:#ffffff;fill-opacity:1;stroke:none;stroke-width:0.50507629;stroke-opacity:0" />
      <path
         inkscape:export-ydpi="200"
         inkscape:export-xdpi="200"
         transform="scale(0.26458333)"
         inkscape:connector-curvature="0"
         id="path1588"
         d="m 165.16819,480.54824 c 0,-0.72877 0.5632,-7.05227 1.25156,-14.05221 1.69677,-17.25442 2.95186,-32.80277 5.06365,-62.72971 1.56266,-22.145 2.28143,-31.08569 3.60008,-44.78088 0.17818,-1.85054 0.46344,-3.57884 0.63391,-3.84068 0.17047,-0.26183 3.85448,-0.60227 8.18669,-0.75651 l 7.87676,-0.28046 0.32915,9.42444 c 0.69563,19.91752 6.3063,107.45404 7.21301,112.53586 0.31793,1.78191 0.22276,1.82471 -5.44491,2.44853 -3.48824,0.38395 -3.13806,1.51147 -4.23169,-13.6252 -0.44113,-6.10543 -0.84482,-11.1133 -0.89711,-11.12857 -0.0523,-0.0153 -2.93611,0.20711 -6.40851,0.49419 l -6.31345,0.52198 -0.3151,3.28299 c -0.17331,1.80565 -0.71736,7.64734 -1.209,12.98153 l -0.89391,9.69853 -1.31638,0.24526 c -0.724,0.13489 -2.62326,0.38941 -4.22056,0.56561 -2.87894,0.31756 -2.90419,0.30882 -2.90419,-1.0047 z m 23.05357,-35.80725 c 0.0399,-0.0349 -0.68267,-12.91268 -1.60578,-28.61723 -0.92311,-15.70455 -1.84156,-31.90998 -2.04099,-36.01207 -0.34981,-7.19537 -0.40004,-7.45299 -1.42467,-7.30668 -1.29162,0.18443 -0.93423,-3.69208 -4.85676,52.67958 -0.54124,7.77818 -1.12681,15.46978 -1.30129,17.09246 l -0.31722,2.95032 5.73705,-0.36144 c 3.15538,-0.1988 5.76973,-0.39002 5.80966,-0.42494 z"
         style="fill:#ffffff;fill-opacity:1;stroke:none;stroke-width:0.50507629;stroke-opacity:0" />
      <path
         inkscape:export-ydpi="200"
         inkscape:export-xdpi="200"
         transform="scale(0.26458333)"
         inkscape:connector-curvature="0"
         id="path1590"
         d="m 227.02224,434.4497 c 0.16027,-22.4317 0.42693,-49.70582 0.59257,-60.60915 l 0.30118,-19.82425 h 8.30347 c 10.57104,0 12.25666,0.40955 15.64939,3.80228 2.09688,2.09688 2.81682,3.28035 3.66391,6.02289 0.98461,3.18781 1.05423,4.59143 1.05423,21.25368 0,23.00756 -0.60865,27.33049 -4.7059,33.42368 -2.48297,3.69252 -5.58171,5.33635 -10.70005,5.67622 -2.31432,0.15367 -4.32714,0.39869 -4.47293,0.54448 -0.14579,0.14579 -0.4272,11.42448 -0.62537,25.06376 l -0.3603,24.79869 -3.02633,0.31631 c -1.66449,0.17398 -3.6876,0.31632 -4.49581,0.31632 h -1.46946 z m 12.91219,-20.88479 c 3.11402,-0.66784 5.71853,-2.78564 6.64647,-5.40442 0.50059,-1.41275 0.66218,-6.42919 0.66218,-20.55662 0,-16.66251 -0.0934,-18.85834 -0.86163,-20.26121 -1.02771,-1.87664 -3.26853,-3.03442 -6.77267,-3.49926 l -2.5714,-0.34111 -0.32672,1.6336 c -0.53355,2.66774 -0.38841,48.98449 0.1535,48.98449 0.26412,0 1.64574,-0.24996 3.07027,-0.55547 z"
         style="fill:#ffffff;fill-opacity:1;stroke:none;stroke-width:0.50507629;stroke-opacity:0" />
      <path
         inkscape:export-ydpi="200"
         inkscape:export-xdpi="200"
         transform="scale(0.26458333)"
         inkscape:connector-curvature="0"
         id="path1592"
         d="m 281.52895,415.58785 c 0.18539,-30.39195 0.47152,-56.67862 0.63584,-58.41482 l 0.29877,-3.15673 8.65373,0.003 c 4.75955,0.002 9.56286,0.25072 10.67403,0.55372 2.86562,0.7814 6.9086,5.04327 8.14029,8.581 0.86844,2.49438 0.95108,4.44342 0.95108,22.42973 0,20.87722 -0.13381,22.3504 -2.52572,27.80627 -2.59827,5.92657 -6.25006,8.37052 -13.13164,8.78832 l -4.54569,0.27598 -0.13121,23.86485 -0.13122,23.86485 h -2.1974 c -1.20857,0 -3.28427,0.14898 -4.61267,0.33105 l -2.41527,0.33105 z m 16.14424,-4.86719 c 0.94523,-0.54027 2.10608,-1.93359 2.85544,-3.42728 1.25582,-2.50321 1.26363,-2.60529 1.43564,-18.75326 0.19227,-18.05082 -0.0981,-20.91221 -2.33974,-23.05513 -1.35001,-1.29057 -4.59354,-2.34088 -7.30339,-2.36497 l -1.38896,-0.0123 v 24.56655 24.56655 l 2.57413,-0.30487 c 1.41577,-0.16768 3.29086,-0.71454 4.16688,-1.21525 z"
         style="fill:#ffffff;fill-opacity:1;stroke:none;stroke-width:0.50507629;stroke-opacity:0" />
      <path
         inkscape:export-ydpi="200"
         inkscape:export-xdpi="200"
         transform="scale(0.26458333)"
         inkscape:connector-curvature="0"
         id="path1594"
         d="m 335.88441,442.27838 c 2.5e-4,-13.95904 0.15117,-39.52853 0.33538,-56.82108 l 0.33494,-31.441 h 10.7763 10.77629 v 4.29315 4.29315 h -6.31345 -6.31345 v 23.99112 c 0,13.19512 0.0568,24.16159 0.12627,24.36993 0.0694,0.20835 2.91078,0.37881 6.31408,0.37881 h 6.18782 l -6.5e-4,4.9094 -6.2e-4,4.90941 -6.43972,0.14135 -6.43972,0.14136 -0.132,20.32932 -0.132,20.32932 h 6.31918 6.31919 v 2.45343 2.45344 l -3.10455,0.32448 c -1.7075,0.17847 -6.59411,0.32449 -10.85914,0.32449 h -7.75459 z"
         style="fill:#ffffff;fill-opacity:1;stroke:none;stroke-width:0.50507629;stroke-opacity:0" />
      <path
         inkscape:export-ydpi="200"
         inkscape:export-xdpi="200"
         transform="scale(0.26458333)"
         inkscape:connector-curvature="0"
         id="path1596"
         d="m 410.8149,467.78668 -6.13381,-0.15845 -0.29001,-1.62638 c -0.7384,-4.14089 -2.81736,-27.24497 -5.89378,-65.49919 -1.12732,-14.01785 -2.15308,-25.59041 -2.27946,-25.7168 -0.12639,-0.12638 -0.2298,13.74905 -0.2298,30.83431 0,17.08525 -0.15029,37.91964 -0.33398,46.29866 l -0.33398,15.23456 h -4.54428 -4.54427 l 0.33257,-9.93021 c 0.18291,-5.46161 0.33257,-30.91746 0.33257,-56.56854 V 354.0163 h 7.75914 7.75915 l 0.30592,2.65165 c 0.28648,2.48306 1.19447,13.39151 5.66509,68.05903 0.9882,12.08395 1.98678,22.9936 2.21906,24.24366 0.24082,1.29606 0.4466,-18.61939 0.47881,-46.34075 l 0.0565,-48.61359 h 4.54569 4.54569 v 41.08135 c 0,22.59474 -0.15035,48.27787 -0.33412,57.07362 l -0.33411,15.99227 -1.30738,-0.10921 c -0.71907,-0.0601 -4.0676,-0.18051 -7.4412,-0.26765 z"
         style="fill:#ffffff;fill-opacity:1;stroke:none;stroke-width:0.50507629;stroke-opacity:0" />
      <path
         inkscape:export-ydpi="200"
         inkscape:export-xdpi="200"
         transform="scale(0.26458333)"
         inkscape:connector-curvature="0"
         id="path1598"
         d="m 454.07182,469.67877 -4.29315,-0.25254 v -57.70459 -57.70459 l 4.34111,-3.7e-4 4.34112,-3.8e-4 0.33084,6.89839 c 0.39544,8.24538 0.31743,69.45066 -0.11802,92.60164 l -0.30876,16.41498 z"
         style="fill:#ffffff;fill-opacity:1;stroke:none;stroke-width:0.50507629;stroke-opacity:0" />
      <path
         inkscape:export-ydpi="200"
         inkscape:export-xdpi="200"
         transform="scale(0.26458333)"
         inkscape:connector-curvature="0"
         id="path1600"
         d="m 512.97076,474.42581 c -3.57964,-0.37153 -6.6026,-0.76966 -6.71769,-0.88475 -0.29868,-0.29868 -2.74463,-28.236 -5.71089,-65.22906 -1.4033,-17.50089 -2.62928,-32.04709 -2.72439,-32.32488 -0.0951,-0.27779 -0.26046,21.23848 -0.36744,47.81393 -0.10698,26.57545 -0.35482,48.4793 -0.55076,48.6752 -0.19593,0.19592 -2.24149,0.19921 -4.54569,0.007 l -4.18944,-0.34891 v -59.059 -59.05899 l 7.70242,-1.9e-4 c 5.817,-1.4e-4 7.70623,0.15435 7.71801,0.63116 0.009,0.34724 0.22227,2.22233 0.47488,4.16688 1.03776,7.98838 3.16646,32.05746 5.33802,60.35661 1.26834,16.52862 2.49349,31.64303 2.72255,33.58757 0.23613,2.00457 0.38861,-18.60885 0.35213,-47.60348 l -0.0643,-51.13902 4.33863,5e-5 4.33863,4e-5 0.33332,12.20362 c 0.4299,15.73926 0.42894,75.14286 -0.002,94.24121 -0.29443,13.06328 -0.42588,14.76577 -1.13549,14.70683 -0.44138,-0.0367 -3.73131,-0.37062 -7.31095,-0.74215 z"
         style="fill:#ffffff;fill-opacity:1;stroke:none;stroke-width:0.50507629;stroke-opacity:0" />
      <path
         inkscape:export-ydpi="200"
         inkscape:export-xdpi="200"
         transform="scale(0.26458333)"
         inkscape:connector-curvature="0"
         id="path1602"
         d="m 576.75389,481.4324 c -2.23465,-0.17893 -2.36955,-0.2827 -3.49713,-2.69014 -1.12317,-2.398 -1.21723,-2.47108 -2.22138,-1.72605 -0.57671,0.4279 -2.26878,1.36752 -3.76016,2.08805 -5.68497,2.74658 -11.97676,0.25901 -15.36438,-6.07459 l -1.11692,-2.08821 v -52.52793 -52.52794 l 1.17882,-2.9205 c 2.71773,-6.73315 7.05862,-9.95924 13.3998,-9.95854 6.68254,7.4e-4 11.4374,3.26832 14.66397,10.0772 l 1.56706,3.30692 0.15554,14.01587 0.15553,14.01586 h -4.82749 -4.82749 l -0.003,-12.2481 c -0.002,-6.84456 -0.23233,-13.07448 -0.52306,-14.12126 -0.28613,-1.03023 -1.21148,-2.5644 -2.05634,-3.40926 -2.01968,-2.01968 -5.225,-2.15775 -7.36488,-0.31723 l -1.41712,1.21888 -0.12269,51.68787 c -0.0959,40.40185 0.0144,51.95293 0.50508,52.90186 1.08806,2.10416 3.14842,3.25394 5.9036,3.29452 1.98324,0.0292 2.76981,-0.20903 3.67454,-1.11293 l 1.15115,-1.15009 v -18.80042 -18.80042 l -3.15673,-0.15038 -3.15673,-0.15036 v -5.42941 -5.42941 l 3.40927,0.1584 c 1.87509,0.0871 5.48016,0.2872 8.01125,0.44463 l 4.602,0.28624 0.3647,9.87828 c 0.20059,5.43305 0.19928,18.59669 -0.003,29.25253 l -0.36759,19.37426 -1.31609,-0.091 c -0.72385,-0.05 -2.36203,-0.17479 -3.64039,-0.27716 z"
         style="fill:#ffffff;fill-opacity:1;stroke:none;stroke-width:0.50507629;stroke-opacity:0" />
      <path
         inkscape:export-ydpi="200"
         inkscape:export-xdpi="200"
         transform="scale(0.26458333)"
         inkscape:connector-curvature="0"
         id="path1604"
         d="m 620.8736,487.61636 c -5.36366,-1.50537 -9.10154,-4.29088 -11.07138,-8.25051 -0.83249,-1.6734 -0.939,-3.58778 -1.06992,-19.23121 l -0.14539,-17.37282 3.12367,0.3265 c 1.71802,0.17956 3.77218,0.32648 4.56481,0.32648 h 1.44114 l 0.0111,15.02602 c 0.0101,13.65377 0.0985,15.21846 0.96783,17.13322 1.82052,4.00968 6.27165,5.26702 8.99633,2.54125 l 1.38896,-1.38951 v -15.77161 c 0,-15.126 -0.0484,-15.92564 -1.18174,-19.53476 -1.52254,-4.84837 -4.20184,-10.14544 -9.0118,-17.81657 -2.12122,-3.38303 -4.82588,-8.20743 -6.01034,-10.7209 -3.76408,-7.98751 -3.86934,-8.66927 -4.11678,-26.66277 -0.23763,-17.28072 -0.0519,-19.26125 2.24579,-23.95383 3.46791,-7.0824 9.69122,-10.17153 16.42621,-8.15368 2.63129,0.78835 6.38868,4.21543 8.13052,7.41576 2.37663,4.36667 2.84359,8.03493 2.85329,22.41465 l 0.009,13.00572 -1.89404,-0.004 c -1.04172,-0.002 -3.07081,-0.14576 -4.50909,-0.31855 l -2.61505,-0.31417 -0.16287,-13.19223 c -0.17413,-14.10432 -0.29972,-14.84272 -2.92942,-17.22256 -1.32345,-1.1977 -4.52599,-1.33563 -5.83599,-0.25134 -0.4958,0.41037 -1.31501,1.65527 -1.82047,2.76644 -0.80684,1.77369 -0.92037,3.51798 -0.93011,14.28969 -0.0157,17.35945 0.77971,20.48859 8.69284,34.19763 11.03538,19.11817 11.99642,22.84421 12.00122,46.52978 0.003,15.60192 -0.18473,17.10985 -2.54478,20.42425 -0.57958,0.81395 -2.07872,2.08056 -3.33142,2.81469 -2.82647,1.65642 -7.73118,2.05535 -11.67188,0.94934 z"
         style="fill:#ffffff;fill-opacity:1;stroke:none;stroke-width:0.50507629;stroke-opacity:0" />
    </g>
  </g>
</svg>
